<svg version="1.1" id="Layer_1" xmlns="http://www.w3.org/2000/svg" xmlns:xlink="http://www.w3.org/1999/xlink" x="0px" y="0px"
	 width="100%" viewBox="0 0 1024 1024" enable-background="new 0 0 1024 1024" xml:space="preserve">
<path fill="#002F55" opacity="1.000000" stroke="none" 
	d="
M446.000000,1025.000000 
	C297.333344,1025.000000 149.166672,1025.000000 1.000000,1025.000000 
	C1.000000,683.666687 1.000000,342.333344 1.000000,1.000000 
	C342.333344,1.000000 683.666687,1.000000 1025.000000,1.000000 
	C1025.000000,342.333344 1025.000000,683.666687 1025.000000,1025.000000 
	C832.166687,1025.000000 639.333313,1025.000000 446.000000,1025.000000 
M255.155548,630.884521 
	C255.155548,630.884521 255.180069,630.772217 255.065521,631.637390 
	C256.375671,637.424011 257.685852,643.210571 258.757721,649.106995 
	C258.839722,649.072998 258.921722,649.038940 259.542755,649.011841 
	C259.900635,648.982483 260.258514,648.953064 260.968048,649.659119 
	C263.171112,657.745544 265.374176,665.832031 267.668518,674.253540 
	C269.671539,674.253540 271.476074,674.253723 273.280609,674.253540 
	C293.234161,674.250977 313.187775,674.234253 333.141266,674.270081 
	C334.921265,674.273254 336.700653,674.618225 337.500488,675.039673 
	C314.704071,675.039673 291.907654,675.039673 269.111206,675.039673 
	C292.062256,675.964050 315.013641,675.966858 337.964935,675.916016 
	C338.154083,675.915588 338.341644,675.189270 339.047058,674.240845 
	C341.151428,667.815247 343.255798,661.389709 345.864105,655.232849 
	C346.241119,655.046753 346.869049,654.941650 346.958923,654.663025 
	C350.399139,643.996887 353.882782,633.343262 357.161194,622.626892 
	C360.393799,612.060242 363.500031,601.452393 366.437103,590.800598 
	C366.924438,589.033142 366.262848,586.948914 366.093536,584.251221 
	C375.992645,550.773376 385.891754,517.295471 395.792236,483.812958 
	C396.368225,483.992920 396.591309,484.004761 396.613464,484.077667 
	C415.430145,546.003784 434.240509,607.931946 453.010193,669.872375 
	C453.744476,672.295471 454.024811,674.372803 457.580444,674.343567 
	C478.386597,674.172241 499.195160,674.221130 520.002197,674.327881 
	C522.752808,674.341980 523.547913,673.327698 524.184875,670.752930 
	C526.327332,662.093018 528.873413,653.533020 531.979858,644.839417 
	C532.652100,643.810913 533.630859,642.868958 533.949524,641.740662 
	C537.358459,629.669922 540.703491,617.580505 543.922485,605.458069 
	C544.190491,604.448669 543.415222,603.162292 543.066467,601.239685 
	C546.827576,588.126709 550.588745,575.013733 555.016785,561.769470 
	C557.048035,555.633118 559.234985,549.541992 561.037537,543.339172 
	C561.809631,540.682190 561.781738,537.792847 562.050781,534.240967 
	C566.631897,518.599304 571.338379,502.992981 575.762939,487.307159 
	C581.438293,467.187164 586.886963,447.003235 593.087219,426.736603 
	C593.755310,425.295502 594.620972,423.912170 595.061646,422.404602 
	C601.267029,401.176544 607.458313,379.944000 613.493225,358.667206 
	C613.978149,356.957367 613.289734,354.914703 613.117432,352.271576 
	C613.242188,352.052795 613.367004,351.833984 613.765625,351.081512 
	C612.584045,350.432739 611.406860,349.248810 610.220032,349.239014 
	C607.095825,349.213257 603.968506,349.928619 600.840637,349.941498 
	C581.851929,350.019867 562.862488,349.944061 543.874023,350.051392 
	C542.035583,350.061768 538.828613,350.609894 538.588806,351.521759 
	C536.994507,357.583313 536.035706,363.812012 534.953369,370.765808 
	C531.547668,384.533844 528.141907,398.301849 524.055969,412.220612 
	C522.028320,419.378357 519.829590,426.493927 518.049377,433.712677 
	C517.230286,437.034210 517.231018,440.557953 516.928040,444.767487 
	C514.536926,454.198242 512.145813,463.628967 509.079498,473.205994 
	C506.747314,482.055389 504.404297,490.902039 502.126373,499.765381 
	C502.043488,500.087738 502.599579,500.574341 502.922852,501.762421 
	C498.814392,518.206299 494.705933,534.650208 489.958557,551.248108 
	C489.053406,553.221069 488.148224,555.194031 487.013550,557.667297 
	C486.320740,555.972473 485.673523,554.692688 485.264557,553.340820 
	C481.839752,542.019226 478.507843,530.669250 475.006836,519.371521 
	C474.528992,517.829468 473.272858,516.528625 472.022827,514.386475 
	C467.821503,499.810089 463.596832,485.240417 459.424042,470.655853 
	C452.304108,445.770355 445.216705,420.875549 438.624359,395.466003 
	C438.698853,394.659332 439.014954,393.785400 438.811920,393.055969 
	C435.161255,379.939758 431.437897,366.843750 427.755249,353.736389 
	C426.872772,350.595428 424.732086,349.831055 421.700165,349.943573 
	C409.794006,350.385254 397.882324,350.677582 385.041870,351.022919 
	C382.557953,351.021423 380.065704,350.891052 377.592194,351.050751 
	C374.432678,351.254761 371.288239,351.692871 367.958374,352.783234 
	C364.175110,366.224884 360.391846,379.666565 355.945953,393.240387 
	C353.658630,400.739899 351.358704,408.235687 349.129028,415.752319 
	C349.037109,416.062164 349.604645,416.567657 349.918182,417.749207 
	C349.803467,418.060211 349.667755,418.365234 349.576935,418.683075 
	C336.049469,466.026825 322.529633,513.372742 308.986115,560.711914 
	C308.407104,562.735718 307.611176,564.697510 306.541321,567.762390 
	C304.192963,558.300598 302.167877,550.141357 300.644012,541.443176 
	C299.358002,534.024841 298.090973,526.602844 296.687683,519.206848 
	C296.648438,519.000122 295.150787,519.070129 294.010864,518.266235 
	C288.046326,494.089600 282.002563,469.932129 276.148315,445.728790 
	C272.877869,432.207733 269.922119,418.610504 267.374329,404.620361 
	C266.230164,398.658203 265.297546,392.643860 263.846893,386.757233 
	C263.183899,384.066833 261.500061,381.627991 260.004486,378.298187 
	C257.889648,369.233917 255.774780,360.169647 253.594345,350.824371 
	C249.194305,350.824371 245.076263,350.824371 240.302597,350.333710 
	C220.932800,350.225311 201.563034,350.105530 182.193085,350.055908 
	C181.515244,350.054169 180.835602,350.750702 180.088028,351.902466 
	C184.685608,369.270203 189.283188,386.637939 193.373398,404.531403 
	C194.734222,411.092743 196.060669,417.661835 197.541794,424.195923 
	C197.630035,424.585236 198.957870,424.693512 200.001633,425.681702 
	C200.954269,429.459778 201.906906,433.237854 202.360443,437.553619 
	C202.248795,438.030060 201.944458,438.556793 202.053818,438.975525 
	C204.461441,448.194580 206.871246,457.413788 209.427841,466.592010 
	C209.680618,467.499451 210.884827,468.141846 211.976852,469.647980 
	C212.940933,473.431824 213.905029,477.215637 214.360748,481.534149 
	C214.261215,482.180908 213.945267,482.882690 214.093597,483.466461 
	C218.493317,500.780151 222.836060,518.109497 227.421036,535.374451 
	C229.710571,543.995789 232.320877,552.539368 235.046478,561.034607 
	C236.666565,566.084045 238.792847,570.971069 240.999603,576.679810 
	C245.645798,594.109863 250.291992,611.539856 254.500183,629.307983 
	C254.756195,629.825989 255.012222,630.343933 255.155548,630.884521 
M686.488403,436.520325 
	C685.366150,436.348877 684.244141,436.029663 683.121704,436.028473 
	C669.437805,436.013977 655.753967,436.046204 641.454712,436.621887 
	C641.300659,438.426575 641.018372,440.230896 641.013123,442.036011 
	C640.974487,455.187836 640.892273,468.341095 641.057739,481.490936 
	C641.101562,484.970673 640.013855,486.130157 636.503174,486.071014 
	C625.518616,485.885925 614.527954,485.931946 603.542419,486.085052 
	C602.036804,486.106018 600.546814,487.241852 598.663086,488.143738 
	C598.663086,488.143738 598.187195,488.194702 597.492126,488.613281 
	C597.347351,502.718903 597.184998,516.824463 597.115601,530.930481 
	C597.112488,531.563538 597.952698,532.200806 598.128296,532.897034 
	C598.128296,532.897034 598.106018,532.619446 598.550842,533.351624 
	C600.322327,533.570984 602.092896,533.970459 603.865540,533.980042 
	C614.312256,534.036316 624.764771,534.193115 635.204102,533.907532 
	C639.612610,533.786926 641.269958,534.842590 641.154175,539.626892 
	C640.821350,553.382507 640.991455,567.151611 641.080750,580.914612 
	C641.091675,582.601318 641.813416,584.283386 642.026917,585.973450 
	C642.026917,585.973450 642.030396,585.794617 642.549438,586.467163 
	C643.180176,586.642090 643.810547,586.967957 644.441772,586.969727 
	C657.594971,587.006287 670.748413,587.032654 683.901245,586.961914 
	C684.930115,586.956421 685.955017,586.222839 686.984375,585.984863 
	C686.984375,585.984863 686.827209,585.982117 687.483398,585.445557 
	C687.655334,583.644287 687.971008,581.843506 687.976440,580.041748 
	C688.017700,566.377258 688.119751,552.710754 687.919617,539.049072 
	C687.863342,535.210022 688.835754,533.799377 692.916626,533.912231 
	C703.240540,534.197754 713.578125,534.063843 723.908875,533.961426 
	C725.617310,533.944458 727.318970,533.238159 729.016846,533.018250 
	C729.016846,533.018250 728.848877,533.017578 729.505066,532.472534 
	C729.645630,518.191040 729.797485,503.909576 729.882141,489.627747 
	C729.885315,489.098114 729.232422,488.564575 727.962646,488.007568 
	C714.640747,487.951782 701.318848,487.895996 688.013123,486.923279 
	C688.005127,471.965881 688.034607,457.008240 687.936768,442.051422 
	C687.925720,440.364319 687.195435,438.681915 687.006653,436.993439 
	C687.006653,436.993439 687.013000,437.201385 686.488403,436.520325 
M822.422485,435.600555 
	C821.803528,435.409882 821.185120,435.054657 820.565613,435.052765 
	C807.796021,435.013580 795.026184,434.988037 782.256958,435.060791 
	C781.291992,435.066284 780.331299,435.828003 779.132385,437.119019 
	C779.132385,454.004272 779.132385,470.889526 779.132385,488.037415 
	C764.352417,488.037415 750.245239,488.037415 735.465210,488.542542 
	C735.340393,502.830841 735.203979,517.119080 735.137451,531.407654 
	C735.135071,531.922852 735.821045,532.441223 736.015442,532.941284 
	C736.015442,532.941284 736.043823,532.772095 736.548462,533.457886 
	C738.335144,533.648926 740.121033,533.995972 741.908630,534.005188 
	C752.123657,534.057922 762.342041,534.173279 772.552856,533.959595 
	C776.640625,533.874207 778.128601,535.225281 778.068909,539.390869 
	C777.876221,552.832275 777.965515,566.278320 778.036377,579.722107 
	C778.045593,581.468384 778.583923,583.211853 779.048035,585.414124 
	C779.048035,585.414124 779.098633,585.899719 779.612122,586.543518 
	C793.537292,586.668030 807.462463,586.804382 821.387939,586.871216 
	C821.914673,586.873718 822.444641,586.203430 822.979675,585.417480 
	C822.979675,585.417480 823.141968,585.020142 823.678711,584.379883 
	C823.788208,569.095337 823.985229,553.810547 823.939941,538.526428 
	C823.929810,535.107788 824.889282,533.878662 828.443787,533.934143 
	C840.580078,534.123596 852.722961,533.893250 864.859375,534.079590 
	C868.613953,534.137207 870.174866,533.243958 870.089783,529.109192 
	C869.836609,516.808899 870.034424,504.499786 869.954651,492.194763 
	C869.945679,490.808167 869.289978,489.425781 868.005737,488.003510 
	C853.320129,487.942505 838.634521,487.881470 824.000244,486.906921 
	C824.001526,471.621490 824.044556,456.335815 823.943420,441.051056 
	C823.932556,439.410736 823.082703,437.775940 822.834473,436.148529 
	C822.834473,436.148529 822.771240,436.351532 822.422485,435.600555 
M511.461731,675.975464 
	C514.929138,675.975464 518.396545,675.975464 521.863953,675.975464 
	C521.862183,675.773010 521.860474,675.570618 521.858704,675.368164 
	C499.621643,675.368164 477.384613,675.368164 455.147552,675.368164 
	C455.146515,675.570740 455.145508,675.773376 455.144470,675.975952 
	C473.587708,675.975952 492.030975,675.975952 511.461731,675.975464 
z"/>
<path fill="#FEFEFE" opacity="1.000000" stroke="none" 
	d="
M338.480347,674.804443 
	C336.700653,674.618225 334.921265,674.273254 333.141266,674.270081 
	C313.187775,674.234253 293.234161,674.250977 273.280609,674.253540 
	C271.476074,674.253723 269.671539,674.253540 267.668518,674.253540 
	C265.374176,665.832031 263.171112,657.745544 260.714417,648.938110 
	C258.700531,642.402161 256.940308,636.587219 255.180069,630.772217 
	C255.180069,630.772217 255.155548,630.884521 255.185974,630.550354 
	C255.123672,629.800781 255.030930,629.385315 254.938187,628.969910 
	C250.291992,611.539856 245.645798,594.109863 240.771759,575.947266 
	C240.200165,573.941650 239.859131,572.667786 239.512314,571.395569 
	C231.298294,541.263489 223.083649,511.131470 214.869125,480.999481 
	C213.905029,477.215637 212.940933,473.431824 211.739807,468.922791 
	C208.621674,457.803680 205.740616,447.409821 202.859543,437.015930 
	C201.906906,433.237854 200.954269,429.459778 199.803299,424.941833 
	C197.696899,417.469879 195.788849,410.737793 193.880783,404.005676 
	C189.283188,386.637939 184.685608,369.270203 180.575226,351.501160 
	C201.027710,351.008057 220.992966,350.916229 240.958237,350.824371 
	C245.076263,350.824371 249.194305,350.824371 253.594345,350.824371 
	C255.774780,360.169647 257.889648,369.233917 260.163208,379.065979 
	C262.489471,388.238373 264.657013,396.642975 266.824554,405.047607 
	C269.922119,418.610504 272.877869,432.207733 276.148315,445.728790 
	C282.002563,469.932129 288.046326,494.089600 294.250671,519.006348 
	C296.374573,527.158325 298.258698,534.570190 300.142822,541.982117 
	C302.167877,550.141357 304.192963,558.300598 306.541321,567.762390 
	C307.611176,564.697510 308.407104,562.735718 308.986115,560.711914 
	C322.529633,513.372742 336.049469,466.026825 349.576935,418.683075 
	C349.667755,418.365234 349.803467,418.060211 350.010742,417.002563 
	C352.271698,408.540009 354.440125,400.824127 356.608551,393.108215 
	C360.391846,379.666565 364.175110,366.224884 368.505005,352.390381 
	C374.691010,351.943024 380.330444,351.888519 386.433533,351.919373 
	C398.395752,351.898987 409.895630,351.860535 421.391907,351.638489 
	C424.150116,351.585236 425.349854,352.285126 426.160645,355.216736 
	C429.935089,368.864288 434.094177,382.405426 438.115631,395.984650 
	C445.216705,420.875549 452.304108,445.770355 459.424042,470.655853 
	C463.596832,485.240417 467.821503,499.810089 472.287659,515.094482 
	C477.283783,531.838318 482.015106,547.874084 486.746429,563.909851 
	C487.058136,563.815186 487.369812,563.720520 487.681488,563.625793 
	C488.653503,559.448608 489.625519,555.271362 490.597534,551.094116 
	C494.705933,534.650208 498.814392,518.206299 502.999451,501.000916 
	C505.302246,491.179504 507.528442,482.119598 509.754669,473.059692 
	C512.145813,463.628967 514.536926,454.198242 517.005371,444.012543 
	C519.633911,432.861694 522.185059,422.465790 524.736206,412.069885 
	C528.141907,398.301849 531.547668,384.533844 535.026611,370.009338 
	C536.547302,363.526581 537.994751,357.800293 539.704773,351.035095 
	C563.882568,351.035095 588.015930,351.031982 612.149292,351.059265 
	C612.596985,351.059784 613.044373,351.421814 613.491882,351.615173 
	C613.367004,351.833984 613.242188,352.052795 613.010376,353.010803 
	C606.079956,378.115662 599.256653,402.481262 592.433289,426.846863 
	C586.886963,447.003235 581.438293,467.187164 575.762939,487.307159 
	C571.338379,502.992981 566.631897,518.599304 561.953247,534.977600 
	C559.353821,544.443054 556.851868,553.171875 554.349854,561.900757 
	C550.588745,575.013733 546.827576,588.126709 542.975159,601.983643 
	C539.010925,616.796631 535.138000,630.865723 531.265076,644.934753 
	C528.873413,653.533020 526.327332,662.093018 524.184875,670.752930 
	C523.547913,673.327698 522.752808,674.341980 520.002197,674.327881 
	C499.195160,674.221130 478.386597,674.172241 457.580444,674.343567 
	C454.024811,674.372803 453.744476,672.295471 453.010193,669.872375 
	C434.240509,607.931946 415.430145,546.003784 396.613464,484.077667 
	C396.591309,484.004761 396.368225,483.992920 395.792236,483.812958 
	C385.891754,517.295471 375.992645,550.773376 365.990051,584.990662 
	C359.044403,608.808105 352.202301,631.886108 345.360168,654.964111 
	C343.255798,661.389709 341.151428,667.815247 338.776428,674.519043 
	C338.505829,674.797302 338.480347,674.804443 338.480347,674.804443 
z"/>
<path fill="#FEFEFE" opacity="1.000000" stroke="none" 
	d="
M823.948914,487.820435 
	C838.634521,487.881470 853.320129,487.942505 868.511597,488.485626 
	C869.017517,503.534851 869.017517,518.101929 869.017517,533.186279 
	C853.407227,533.186279 838.242249,533.186279 823.141968,533.186279 
	C823.141968,550.811890 823.141968,567.916016 823.141968,585.020142 
	C823.141968,585.020142 822.979675,585.417480 822.513550,585.701233 
	C807.731140,585.956543 793.414856,585.928101 779.098633,585.899719 
	C779.098633,585.899719 779.048035,585.414124 779.045776,584.727295 
	C779.043579,567.152771 779.043579,550.265137 779.043579,532.772095 
	C764.505798,532.772095 750.274841,532.772095 736.043823,532.772095 
	C736.043823,532.772095 736.015442,532.941284 736.046875,532.485840 
	C736.098206,517.366089 736.118103,502.701752 736.138062,488.037415 
	C750.245239,488.037415 764.352417,488.037415 779.132385,488.037415 
	C779.132385,470.889526 779.132385,454.004272 779.680054,436.704834 
	C794.408936,436.310913 808.590088,436.331238 822.771240,436.351562 
	C822.771240,436.351532 822.834473,436.148529 822.855469,436.590149 
	C822.915588,452.493408 822.929260,467.955170 823.034912,483.416321 
	C823.044922,484.886383 823.630493,486.352478 823.948914,487.820435 
z"/>
<path fill="#FDFEFE" opacity="1.000000" stroke="none" 
	d="
M598.187195,488.194702 
	C598.187195,488.194702 598.663086,488.143738 599.316833,488.057617 
	C613.986877,487.971466 628.003174,487.971466 642.064331,487.971466 
	C642.064331,470.569763 642.064331,453.826965 642.526367,437.046783 
	C657.663208,437.073395 672.338135,437.137390 687.013000,437.201385 
	C687.013000,437.201385 687.006653,436.993439 686.980408,437.463257 
	C686.954285,453.148315 686.926819,468.363708 686.999939,483.578644 
	C687.006775,485.000702 687.649475,486.419769 687.996948,487.840210 
	C701.318848,487.895996 714.640747,487.951782 728.473694,488.484253 
	C728.939453,503.646454 728.894165,518.332031 728.848877,533.017578 
	C728.848877,533.017578 729.016846,533.018250 728.550659,533.008667 
	C714.383423,532.999146 700.682495,532.999146 686.827209,532.999146 
	C686.827209,551.124695 686.827209,568.553406 686.827209,585.982117 
	C686.827209,585.982117 686.984375,585.984863 686.518311,585.981812 
	C671.378296,585.917419 656.704346,585.856018 642.030396,585.794617 
	C642.030396,585.794617 642.026917,585.973450 642.039185,585.507202 
	C642.051514,567.838928 642.051514,550.636963 642.051514,533.012817 
	C639.761292,533.012817 637.816284,533.029541 635.871643,533.010132 
	C623.283081,532.884338 610.694580,532.750610 598.106018,532.619446 
	C598.106018,532.619446 598.128296,532.897034 598.225830,532.412476 
	C598.278015,517.350159 598.232605,502.772430 598.187195,488.194702 
z"/>
<path fill="#071E44" opacity="1.000000" stroke="none" 
	d="
M214.614929,481.266815 
	C223.083649,511.131470 231.298294,541.263489 239.512314,571.395569 
	C239.859131,572.667786 240.200165,573.941650 240.617737,575.572937 
	C238.792847,570.971069 236.666565,566.084045 235.046478,561.034607 
	C232.320877,552.539368 229.710571,543.995789 227.421036,535.374451 
	C222.836060,518.109497 218.493317,500.780151 214.093597,483.466461 
	C213.945267,482.882690 214.261215,482.180908 214.614929,481.266815 
z"/>
<path fill="#071E44" opacity="1.000000" stroke="none" 
	d="
M438.369995,395.725342 
	C434.094177,382.405426 429.935089,368.864288 426.160645,355.216736 
	C425.349854,352.285126 424.150116,351.585236 421.391907,351.638489 
	C409.895630,351.860535 398.395752,351.898987 386.436768,351.717224 
	C385.976349,351.429688 385.972687,351.025360 385.972687,351.025360 
	C397.882324,350.677582 409.794006,350.385254 421.700165,349.943573 
	C424.732086,349.831055 426.872772,350.595428 427.755249,353.736389 
	C431.437897,366.843750 435.161255,379.939758 438.811920,393.055969 
	C439.014954,393.785400 438.698853,394.659332 438.369995,395.725342 
z"/>
<path fill="#071E44" opacity="1.000000" stroke="none" 
	d="
M613.628784,351.348328 
	C613.044373,351.421814 612.596985,351.059784 612.149292,351.059265 
	C588.015930,351.031982 563.882568,351.035095 539.704773,351.035095 
	C537.994751,357.800293 536.547302,363.526581 534.985107,369.619629 
	C536.035706,363.812012 536.994507,357.583313 538.588806,351.521759 
	C538.828613,350.609894 542.035583,350.061768 543.874023,350.051392 
	C562.862488,349.944061 581.851929,350.019867 600.840637,349.941498 
	C603.968506,349.928619 607.095825,349.213257 610.220032,349.239014 
	C611.406860,349.248810 612.584045,350.432739 613.628784,351.348328 
z"/>
<path fill="#000424" opacity="1.000000" stroke="none" 
	d="
M823.410339,584.700012 
	C823.141968,567.916016 823.141968,550.811890 823.141968,533.186279 
	C838.242249,533.186279 853.407227,533.186279 869.017517,533.186279 
	C869.017517,518.101929 869.017517,503.534851 868.975830,488.504578 
	C869.289978,489.425781 869.945679,490.808167 869.954651,492.194763 
	C870.034424,504.499786 869.836609,516.808899 870.089783,529.109192 
	C870.174866,533.243958 868.613953,534.137207 864.859375,534.079590 
	C852.722961,533.893250 840.580078,534.123596 828.443787,533.934143 
	C824.889282,533.878662 823.929810,535.107788 823.939941,538.526428 
	C823.985229,553.810547 823.788208,569.095337 823.410339,584.700012 
z"/>
<path fill="#071E44" opacity="1.000000" stroke="none" 
	d="
M642.064331,437.084167 
	C642.064331,453.826965 642.064331,470.569763 642.064331,487.971466 
	C628.003174,487.971466 613.986877,487.971466 599.510071,487.916473 
	C600.546814,487.241852 602.036804,486.106018 603.542419,486.085052 
	C614.527954,485.931946 625.518616,485.885925 636.503174,486.071014 
	C640.013855,486.130157 641.101562,484.970673 641.057739,481.490936 
	C640.892273,468.341095 640.974487,455.187836 641.013123,442.036011 
	C641.018372,440.230896 641.300659,438.426575 641.758362,436.598206 
	C642.062805,436.744415 642.063538,436.914276 642.064331,437.084167 
z"/>
<path fill="#071E44" opacity="1.000000" stroke="none" 
	d="
M345.612152,655.098511 
	C352.202301,631.886108 359.044403,608.808105 366.009338,585.370605 
	C366.262848,586.948914 366.924438,589.033142 366.437103,590.800598 
	C363.500031,601.452393 360.393799,612.060242 357.161194,622.626892 
	C353.882782,633.343262 350.399139,643.996887 346.958923,654.663025 
	C346.869049,654.941650 346.241119,655.046753 345.612152,655.098511 
z"/>
<path fill="#071E44" opacity="1.000000" stroke="none" 
	d="
M592.760254,426.791748 
	C599.256653,402.481262 606.079956,378.115662 613.024902,353.388367 
	C613.289734,354.914703 613.978149,356.957367 613.493225,358.667206 
	C607.458313,379.944000 601.267029,401.176544 595.061646,422.404602 
	C594.620972,423.912170 593.755310,425.295502 592.760254,426.791748 
z"/>
<path fill="#071E44" opacity="1.000000" stroke="none" 
	d="
M736.296143,533.114990 
	C750.274841,532.772095 764.505798,532.772095 779.043579,532.772095 
	C779.043579,550.265137 779.043579,567.152771 778.960327,584.498535 
	C778.583923,583.211853 778.045593,581.468384 778.036377,579.722107 
	C777.965515,566.278320 777.876221,552.832275 778.068909,539.390869 
	C778.128601,535.225281 776.640625,533.874207 772.552856,533.959595 
	C762.342041,534.173279 752.123657,534.057922 741.908630,534.005188 
	C740.121033,533.995972 738.335144,533.648926 736.296143,533.114990 
z"/>
<path fill="#071E44" opacity="1.000000" stroke="none" 
	d="
M490.278046,551.171143 
	C489.625519,555.271362 488.653503,559.448608 487.681488,563.625793 
	C487.369812,563.720520 487.058136,563.815186 486.746429,563.909851 
	C482.015106,547.874084 477.283783,531.838318 472.464783,515.459351 
	C473.272858,516.528625 474.528992,517.829468 475.006836,519.371521 
	C478.507843,530.669250 481.839752,542.019226 485.264557,553.340820 
	C485.673523,554.692688 486.320740,555.972473 487.013550,557.667297 
	C488.148224,555.194031 489.053406,553.221069 490.278046,551.171143 
z"/>
<path fill="#000424" opacity="1.000000" stroke="none" 
	d="
M598.328430,532.985535 
	C610.694580,532.750610 623.283081,532.884338 635.871643,533.010132 
	C637.816284,533.029541 639.761292,533.012817 642.051514,533.012817 
	C642.051514,550.636963 642.051514,567.838928 642.128662,585.504272 
	C641.813416,584.283386 641.091675,582.601318 641.080750,580.914612 
	C640.991455,567.151611 640.821350,553.382507 641.154175,539.626892 
	C641.269958,534.842590 639.612610,533.786926 635.204102,533.907532 
	C624.764771,534.193115 614.312256,534.036316 603.865540,533.980042 
	C602.092896,533.970459 600.322327,533.570984 598.328430,532.985535 
z"/>
<path fill="#000424" opacity="1.000000" stroke="none" 
	d="
M687.155273,585.713867 
	C686.827209,568.553406 686.827209,551.124695 686.827209,532.999146 
	C700.682495,532.999146 714.383423,532.999146 728.554077,532.924805 
	C727.318970,533.238159 725.617310,533.944458 723.908875,533.961426 
	C713.578125,534.063843 703.240540,534.197754 692.916626,533.912231 
	C688.835754,533.799377 687.863342,535.210022 687.919617,539.049072 
	C688.119751,552.710754 688.017700,566.377258 687.976440,580.041748 
	C687.971008,581.843506 687.655334,583.644287 687.155273,585.713867 
z"/>
<path fill="#071E44" opacity="1.000000" stroke="none" 
	d="
M531.622437,644.887085 
	C535.138000,630.865723 539.010925,616.796631 543.004272,602.366089 
	C543.415222,603.162292 544.190491,604.448669 543.922485,605.458069 
	C540.703491,617.580505 537.358459,629.669922 533.949524,641.740662 
	C533.630859,642.868958 532.652100,643.810913 531.622437,644.887085 
z"/>
<path fill="#000424" opacity="1.000000" stroke="none" 
	d="
M337.990417,674.922058 
	C338.480347,674.804443 338.505829,674.797302 338.517883,674.799561 
	C338.341644,675.189270 338.154083,675.915588 337.964935,675.916016 
	C315.013641,675.966858 292.062256,675.964050 269.111206,675.039673 
	C291.907654,675.039673 314.704071,675.039673 337.990417,674.922058 
z"/>
<path fill="#000424" opacity="1.000000" stroke="none" 
	d="
M510.967987,675.975708 
	C492.030975,675.975952 473.587708,675.975952 455.144470,675.975952 
	C455.145508,675.773376 455.146515,675.570740 455.147552,675.368164 
	C477.384613,675.368164 499.621643,675.368164 521.858704,675.368164 
	C521.860474,675.570618 521.862183,675.773010 521.863953,675.975464 
	C518.396545,675.975464 514.929138,675.975464 510.967987,675.975708 
z"/>
<path fill="#000424" opacity="1.000000" stroke="none" 
	d="
M240.630417,350.579041 
	C220.992966,350.916229 201.027710,351.008057 180.609619,351.110840 
	C180.835602,350.750702 181.515244,350.054169 182.193085,350.055908 
	C201.563034,350.105530 220.932800,350.225311 240.630417,350.579041 
z"/>
<path fill="#071E44" opacity="1.000000" stroke="none" 
	d="
M524.396118,412.145264 
	C522.185059,422.465790 519.633911,432.861694 516.971375,443.623779 
	C517.231018,440.557953 517.230286,437.034210 518.049377,433.712677 
	C519.829590,426.493927 522.028320,419.378357 524.396118,412.145264 
z"/>
<path fill="#071E44" opacity="1.000000" stroke="none" 
	d="
M202.609985,437.284790 
	C205.740616,447.409821 208.621674,457.803680 211.575104,468.552429 
	C210.884827,468.141846 209.680618,467.499451 209.427841,466.592010 
	C206.871246,457.413788 204.461441,448.194580 202.053818,438.975525 
	C201.944458,438.556793 202.248795,438.030060 202.609985,437.284790 
z"/>
<path fill="#000424" opacity="1.000000" stroke="none" 
	d="
M823.974609,487.363678 
	C823.630493,486.352478 823.044922,484.886383 823.034912,483.416321 
	C822.929260,467.955170 822.915588,452.493408 822.749268,436.585205 
	C823.082703,437.775940 823.932556,439.410736 823.943420,441.051056 
	C824.044556,456.335815 824.001526,471.621490 823.974609,487.363678 
z"/>
<path fill="#000424" opacity="1.000000" stroke="none" 
	d="
M688.005005,487.381744 
	C687.649475,486.419769 687.006775,485.000702 686.999939,483.578644 
	C686.926819,468.363708 686.954285,453.148315 686.876404,437.465210 
	C687.195435,438.681915 687.925720,440.364319 687.936768,442.051422 
	C688.034607,457.008240 688.005127,471.965881 688.005005,487.381744 
z"/>
<path fill="#071E44" opacity="1.000000" stroke="none" 
	d="
M509.417053,473.132843 
	C507.528442,482.119598 505.302246,491.179504 502.966980,500.611938 
	C502.599579,500.574341 502.043488,500.087738 502.126373,499.765381 
	C504.404297,490.902039 506.747314,482.055389 509.417053,473.132843 
z"/>
<path fill="#071E44" opacity="1.000000" stroke="none" 
	d="
M267.099426,404.833984 
	C264.657013,396.642975 262.489471,388.238373 260.300568,379.454407 
	C261.500061,381.627991 263.183899,384.066833 263.846893,386.757233 
	C265.297546,392.643860 266.230164,398.658203 267.099426,404.833984 
z"/>
<path fill="#071E44" opacity="1.000000" stroke="none" 
	d="
M554.683350,561.835083 
	C556.851868,553.171875 559.353821,544.443054 561.986572,535.361633 
	C561.781738,537.792847 561.809631,540.682190 561.037537,543.339172 
	C559.234985,549.541992 557.048035,555.633118 554.683350,561.835083 
z"/>
<path fill="#000424" opacity="1.000000" stroke="none" 
	d="
M729.177002,532.745056 
	C728.894165,518.332031 728.939453,503.646454 728.934998,488.496887 
	C729.232422,488.564575 729.885315,489.098114 729.882141,489.627747 
	C729.797485,503.909576 729.645630,518.191040 729.177002,532.745056 
z"/>
<path fill="#000424" opacity="1.000000" stroke="none" 
	d="
M642.526367,437.046783 
	C642.063538,436.914276 642.062805,436.744415 642.066040,436.320435 
	C655.753967,436.046204 669.437805,436.013977 683.121704,436.028473 
	C684.244141,436.029663 685.366150,436.348877 686.750732,436.860840 
	C672.338135,437.137390 657.663208,437.073395 642.526367,437.046783 
z"/>
<path fill="#000424" opacity="1.000000" stroke="none" 
	d="
M642.289917,586.130859 
	C656.704346,585.856018 671.378296,585.917419 686.516968,585.903259 
	C685.955017,586.222839 684.930115,586.956421 683.901245,586.961914 
	C670.748413,587.032654 657.594971,587.006287 644.441772,586.969727 
	C643.810547,586.967957 643.180176,586.642090 642.289917,586.130859 
z"/>
<path fill="#000424" opacity="1.000000" stroke="none" 
	d="
M735.801636,488.289978 
	C736.118103,502.701752 736.098206,517.366089 736.132202,532.494263 
	C735.821045,532.441223 735.135071,531.922852 735.137451,531.407654 
	C735.203979,517.119080 735.340393,502.830841 735.801636,488.289978 
z"/>
<path fill="#000424" opacity="1.000000" stroke="none" 
	d="
M597.839661,488.403992 
	C598.232605,502.772430 598.278015,517.350159 598.361755,532.382019 
	C597.952698,532.200806 597.112488,531.563538 597.115601,530.930481 
	C597.184998,516.824463 597.347351,502.718903 597.839661,488.403992 
z"/>
<path fill="#000424" opacity="1.000000" stroke="none" 
	d="
M779.355347,586.221619 
	C793.414856,585.928101 807.731140,585.956543 822.510254,585.915833 
	C822.444641,586.203430 821.914673,586.873718 821.387939,586.871216 
	C807.462463,586.804382 793.537292,586.668030 779.355347,586.221619 
z"/>
<path fill="#000424" opacity="1.000000" stroke="none" 
	d="
M822.596863,435.976074 
	C808.590088,436.331238 794.408936,436.310913 779.798218,436.264404 
	C780.331299,435.828003 781.291992,435.066284 782.256958,435.060791 
	C795.026184,434.988037 807.796021,435.013580 820.565613,435.052765 
	C821.185120,435.054657 821.803528,435.409882 822.596863,435.976074 
z"/>
<path fill="#071E44" opacity="1.000000" stroke="none" 
	d="
M300.393433,541.712646 
	C298.258698,534.570190 296.374573,527.158325 294.411835,519.378784 
	C295.150787,519.070129 296.648438,519.000122 296.687683,519.206848 
	C298.090973,526.602844 299.358002,534.024841 300.393433,541.712646 
z"/>
<path fill="#071E44" opacity="1.000000" stroke="none" 
	d="
M356.277252,393.174316 
	C354.440125,400.824127 352.271698,408.540009 349.984131,416.618958 
	C349.604645,416.567657 349.037109,416.062164 349.129028,415.752319 
	C351.358704,408.235687 353.658630,400.739899 356.277252,393.174316 
z"/>
<path fill="#071E44" opacity="1.000000" stroke="none" 
	d="
M193.627090,404.268555 
	C195.788849,410.737793 197.696899,417.469879 199.656921,424.567291 
	C198.957870,424.693512 197.630035,424.585236 197.541794,424.195923 
	C196.060669,417.661835 194.734222,411.092743 193.627090,404.268555 
z"/>
<path fill="#071E44" opacity="1.000000" stroke="none" 
	d="
M255.122803,631.204834 
	C256.940308,636.587219 258.700531,642.402161 260.538574,648.570435 
	C260.258514,648.953064 259.900635,648.982483 259.271362,649.005920 
	C259.000000,649.000000 258.996002,648.997192 258.996002,648.997192 
	C257.685852,643.210571 256.375671,637.424011 255.122803,631.204834 
z"/>
<path fill="#000424" opacity="1.000000" stroke="none" 
	d="
M385.507263,351.024139 
	C385.972687,351.025360 385.976349,351.429688 385.973083,351.631836 
	C380.330444,351.888519 374.691010,351.943024 368.594452,352.013824 
	C371.288239,351.692871 374.432678,351.254761 377.592194,351.050751 
	C380.065704,350.891052 382.557953,351.021423 385.507263,351.024139 
z"/>
<path fill="#071E44" opacity="1.000000" stroke="none" 
	d="
M254.719177,629.138916 
	C255.030930,629.385315 255.123672,629.800781 255.242340,630.539062 
	C255.012222,630.343933 254.756195,629.825989 254.719177,629.138916 
z"/>
<path fill="#071E44" opacity="1.000000" stroke="none" 
	d="
M259.001862,649.002441 
	C258.921722,649.038940 258.839722,649.072998 258.876862,649.052124 
	C258.996002,648.997192 259.000000,649.000000 259.001862,649.002441 
z"/>
</svg>