<?xml version="1.0" encoding="utf-8"?>
<!-- Generator: Adobe Illustrator 25.0.0, SVG Export Plug-In . SVG Version: 6.00 Build 0)  -->
<svg version="1.1" id="Layer_1" xmlns="http://www.w3.org/2000/svg" xmlns:xlink="http://www.w3.org/1999/xlink" x="0px" y="0px"
	 viewBox="0 0 16 16" style="enable-background:new 0 0 16 16;" xml:space="preserve">
<style type="text/css">
	.st0{fill:#0D47A1;}
	.st1{fill:#F1F2F2;}
</style>
<rect class="st0" width="16" height="16"/>
<g>
	<polygon class="st1" points="7.3,3.5 6.5,9.8 5.6,3.6 5.6,3.5 4.5,3.5 3.7,9.8 2.9,3.6 2.8,3.5 1.5,3.5 2.9,12.4 2.9,12.5 
		4.4,12.5 5.1,7.6 5.8,12.5 7.3,12.5 8.6,3.6 8.7,3.5 	"/>
	<g>
		<polygon class="st1" points="10.3,7 9.4,7 9.4,8.1 8.4,8.1 8.4,8.9 9.4,8.9 9.4,10 10.3,10 10.3,8.9 11.3,8.9 11.3,8.1 10.3,8.1 
					"/>
		<polygon class="st1" points="13.5,8.1 13.5,7 12.7,7 12.7,8.1 11.7,8.1 11.7,8.9 12.7,8.9 12.7,10 13.5,10 13.5,8.9 14.5,8.9 
			14.5,8.1 		"/>
	</g>
</g>
</svg>
